# xmcd
#
# Track frame offsets: 
#        150
#        13671
#        28112
#        38882
#        51892
#        65116
#        77900
#        94859
#        107716
#        118797
#        130185
#        147433
#        159069
#        170876
#        188744
#        198741
#        210173
#        220947
#        231683
#        247038
#        259693
#        271125
#        285099
#        300129
#
# Disc length: 4171 seconds
#
# Revision: 3
# Processed by: cddbd v1.5.2PL0 Copyright (c) Steve Scherf et al.
# Submitted via: ExactAudioCopy v1.3
#
DISCID=5c104918
DTITLE=Various Artist - 1967: The Year Pop Divided (2)
DYEAR=1967
DGENRE=Rock
TTITLE0=THE PICADILLY LINE At The Third Stroke MONO
TTITLE1=SHARON TANDY Hold On MONO
TTITLE2=WILLIAM E Lazy Life MONO
TTITLE3=THE SUPREMES Reflections MONO
TTITLE4=THE FORTUNES The Idol MONO
TTITLE5=SVENSK Dream Magazine MONO
TTITLE6=THE MAMRMALADE I See The Rain MONO
TTITLE7=THE FOUR TOPS You Keep Running Away MONO
TTITLE8=CAPTAIN BEEFHEART and HIS MAGIC BAND Yellow Brick Road MONO
TTITLE9=BOOKER T and THE MG'S Slim Jenkins' Place MONO
TTITLE10=TOMORROW Revolution MONO
TTITLE11=THE SHAG Stop And Listen MONO
TTITLE12=LES YPER SOUND Psyche Rock MONO
TTITLE13=THE BLOSSOM TOES Look At Me I'm You MONO
TTITLE14=THE SANDPEBBLES Love Power MONO
TTITLE15=THE SEEDS The Wind Blows Your Hair MONO
TTITLE16=DAVE DAVIES Suzanah's Still Alive MONO
TTITLE17=KEN BOOTH The One I Love MONO
TTITLE18=JAMES BROWN and THE FAMOUS FLAMES I Can't Stand Myself (When Yo
TTITLE18=u Touch Me) MONO
TTITLE19=ARETHA FRANKLINChain Of Fools MONO
TTITLE20=THE MICKEY FINN Garden Of My Mind MONO
TTITLE21=VACUUM CLEANERVacuum Cleaner MONO
TTITLE22=ANDY ELLISON It's Been A Long Time MONO
TTITLE23=THE EASYBEATS The Music Goes Round My Head MONO
EXTD=
EXTT0=
EXTT1=
EXTT2=
EXTT3=
EXTT4=
EXTT5=
EXTT6=
EXTT7=
EXTT8=
EXTT9=
EXTT10=
EXTT11=
EXTT12=
EXTT13=
EXTT14=
EXTT15=
EXTT16=
EXTT17=
EXTT18=
EXTT19=
EXTT20=
EXTT21=
EXTT22=
EXTT23=
PLAYORDER=
